<svg xmlns="http://www.w3.org/2000/svg" viewBox="0 0 576 512"><!--!Font Awesome Free 6.6.0 by @fontawesome - https://fontawesome.com License - https://fontawesome.com/license/free Copyright 2024 Fonticons, Inc.--><path d="M504.7 320H211.6l6.5 32h268.4c15.4 0 26.8 14.3 23.4 29.3l-5.5 24.3C523.1 414.7 536 433.8 536 456c0 31.2-25.5 56.4-56.8 56-29.8-.4-54.4-24.6-55.2-54.4-.4-16.3 6.1-31 16.8-41.5H231.2C241.6 426.2 248 440.3 248 456c0 31.8-26.5 57.4-58.7 55.9-28.5-1.3-51.8-24.4-53.3-52.9-1.2-22 10.4-41.5 28.1-51.6L93.9 64H24C10.7 64 0 53.3 0 40V24C0 10.7 10.7 0 24 0h102.5c11.4 0 21.2 8 23.5 19.2L159.2 64H552c15.4 0 26.8 14.3 23.4 29.3l-47.3 208C525.6 312.2 515.9 320 504.7 320zM408 168h-48v-40c0-8.8-7.2-16-16-16h-16c-8.8 0-16 7.2-16 16v40h-48c-8.8 0-16 7.2-16 16v16c0 8.8 7.2 16 16 16h48v40c0 8.8 7.2 16 16 16h16c8.8 0 16-7.2 16-16v-40h48c8.8 0 16-7.2 16-16v-16c0-8.8-7.2-16-16-16z"/></svg>